<svg width="62" height="17" viewBox="0 0 62 17" fill="none" xmlns="http://www.w3.org/2000/svg">
<path d="M12.32 16H9.52L3.18 6.42V16H0.38V2.02H3.18L9.52 11.62V2.02H12.32V16ZM61.1872 16H58.3872L52.0472 6.42V16H49.2472V2.02H52.0472L58.3872 11.62V2.02H61.1872V16Z" fill="#9E896A"/>
<path d="M20.007 16.18C18.9404 16.18 17.9804 15.9467 17.127 15.48C16.2737 15 15.6004 14.3267 15.107 13.46C14.627 12.5933 14.387 11.5933 14.387 10.46C14.387 9.32667 14.6337 8.32667 15.127 7.46C15.6337 6.59333 16.3204 5.92667 17.187 5.46C18.0537 4.98 19.0204 4.74 20.087 4.74C21.1537 4.74 22.1204 4.98 22.987 5.46C23.8537 5.92667 24.5337 6.59333 25.027 7.46C25.5337 8.32667 25.787 9.32667 25.787 10.46C25.787 11.5933 25.527 12.5933 25.007 13.46C24.5004 14.3267 23.807 15 22.927 15.48C22.0604 15.9467 21.087 16.18 20.007 16.18ZM20.007 13.74C20.5137 13.74 20.987 13.62 21.427 13.38C21.8804 13.1267 22.2404 12.7533 22.507 12.26C22.7737 11.7667 22.907 11.1667 22.907 10.46C22.907 9.40667 22.627 8.6 22.067 8.04C21.5204 7.46667 20.847 7.18 20.047 7.18C19.247 7.18 18.5737 7.46667 18.027 8.04C17.4937 8.6 17.227 9.40667 17.227 10.46C17.227 11.5133 17.487 12.3267 18.007 12.9C18.5404 13.46 19.207 13.74 20.007 13.74ZM30.6409 6.64C31.0009 6.05333 31.4676 5.59333 32.0409 5.26C32.6276 4.92667 33.2943 4.76 34.0409 4.76V7.7H33.3009C32.4209 7.7 31.7543 7.90667 31.3009 8.32C30.8609 8.73333 30.6409 9.45333 30.6409 10.48V16H27.8409V4.92H30.6409V6.64ZM39.1869 7.22V12.58C39.1869 12.9533 39.2735 13.2267 39.4469 13.4C39.6335 13.56 39.9402 13.64 40.3669 13.64H41.6669V16H39.9069C37.5469 16 36.3669 14.8533 36.3669 12.56V7.22H35.0469V4.92H36.3669V2.18H39.1869V4.92H41.6669V7.22H39.1869ZM45.1008 3.6C44.6074 3.6 44.1941 3.44667 43.8608 3.14C43.5408 2.82 43.3808 2.42667 43.3808 1.96C43.3808 1.49333 43.5408 1.10667 43.8608 0.799999C44.1941 0.479999 44.6074 0.319999 45.1008 0.319999C45.5941 0.319999 46.0008 0.479999 46.3208 0.799999C46.6541 1.10667 46.8208 1.49333 46.8208 1.96C46.8208 2.42667 46.6541 2.82 46.3208 3.14C46.0008 3.44667 45.5941 3.6 45.1008 3.6ZM46.4808 4.92V16H43.6808V4.92H46.4808Z" fill="black"/>
</svg>
